<?xml version="1.0" standalone="no"?>
<!DOCTYPE svg PUBLIC "-//W3C//DTD SVG 20010904//EN"
 "http://www.w3.org/TR/2001/REC-SVG-20010904/DTD/svg10.dtd">
<svg version="1.0" xmlns="http://www.w3.org/2000/svg"
 width="500.000000pt" height="500.000000pt" viewBox="0 0 500.000000 500.000000"
 preserveAspectRatio="xMidYMid meet">
<metadata>
Created by potrace 1.11, written by Peter Selinger 2001-2013
</metadata>
<g transform="translate(0.000000,500.000000) scale(0.100000,-0.100000)"
fill="#000000" stroke="none">
<path d="M206 3900 c-2 -5 0 -147 3 -182 0 -10 4 -17 9 -16 12 3 185 -22 191
-28 4 -4 2 -72 -4 -164 -1 -25 -6 -97 -9 -160 -4 -63 -9 -144 -11 -180 -2 -36
-7 -110 -10 -165 -3 -55 -8 -135 -10 -177 -7 -118 -13 -222 -20 -338 -3 -58
-8 -136 -10 -175 -3 -38 -7 -108 -10 -155 -3 -47 -7 -123 -10 -170 -3 -47 -7
-116 -10 -155 -7 -131 -18 -320 -20 -365 -2 -25 -4 -55 -4 -66 -1 -14 -7 -21
-18 -21 -44 2 -218 -18 -231 -27 -4 -2 -8 -47 -7 -98 l0 -93 228 0 c243 -1
273 4 301 47 8 13 17 56 20 98 12 162 17 228 21 315 3 50 7 119 9 155 8 110
17 262 21 330 9 145 16 258 20 320 2 36 7 108 10 160 3 52 7 124 10 160 3 36
7 108 10 160 3 52 7 124 10 160 2 36 7 106 10 155 8 137 16 250 19 252 1 2 51
-129 110 -290 60 -160 158 -425 218 -587 61 -162 118 -317 128 -345 15 -43
177 -480 240 -647 l21 -58 138 0 138 0 32 87 c18 49 39 102 46 118 7 17 62
154 121 305 436 1116 545 1393 555 1410 5 10 9 -3 10 -40 0 -30 2 -66 4 -80 1
-14 5 -79 9 -145 8 -133 13 -211 21 -330 3 -44 8 -114 10 -155 3 -41 7 -109
10 -150 10 -150 16 -237 20 -320 5 -85 12 -186 20 -290 2 -30 7 -104 10 -165
3 -60 8 -132 10 -160 2 -27 7 -95 10 -150 15 -268 23 -296 87 -313 17 -4 130
-7 252 -7 l221 0 1 98 c1 75 -2 97 -12 98 -8 1 -17 2 -21 3 -5 1 -51 6 -103
11 -52 5 -98 9 -102 9 -17 2 -16 -6 -33 281 -3 50 -7 119 -10 155 -2 36 -6
110 -9 165 -3 55 -8 138 -11 185 -9 136 -14 219 -20 315 -3 50 -8 122 -10 160
-3 39 -7 115 -10 170 -3 55 -8 132 -10 170 -12 208 -17 275 -20 325 -3 30 -7
111 -11 180 -3 69 -7 139 -9 156 l-3 32 97 13 c53 7 99 12 104 11 9 -2 9 2 9
106 0 46 -3 86 -6 89 -3 4 -135 6 -294 6 -316 0 -336 -4 -366 -61 -8 -15 -80
-201 -161 -412 -81 -212 -157 -412 -170 -445 -13 -33 -107 -280 -209 -549
-103 -268 -190 -495 -194 -503 -6 -10 -24 28 -56 119 -65 183 -126 354 -246
688 -56 157 -164 459 -240 672 -76 212 -145 402 -154 420 -33 68 -44 71 -373
72 -162 0 -296 -1 -297 -4z"/>
<path d="M4340 3902 c-6 -2 -10 -44 -10 -98 l0 -94 38 -1 c20 0 51 -2 67 -3
17 -2 77 -7 135 -11 58 -4 107 -9 110 -10 11 -7 3 -1870 -8 -1936 -46 -263
-180 -396 -409 -404 -311 -11 -465 169 -479 559 -3 71 -7 132 -9 134 -4 4
-209 6 -254 3 -11 -1 -13 -27 -8 -148 3 -82 9 -164 12 -183 67 -389 286 -582
675 -595 305 -10 521 80 649 271 68 99 114 248 127 404 2 25 4 492 4 1037 1
806 -1 998 -12 1020 -25 52 -47 56 -345 57 -150 1 -278 0 -283 -2z"/>
</g>
</svg>
