<svg aria-hidden="true" style="position: absolute; width: 0; height: 0; overflow: hidden;" version="1.1" xmlns="http://www.w3.org/2000/svg" xmlns:xlink="http://www.w3.org/1999/xlink">
<defs>
<symbol id="icon-black" viewBox="0 0 32 32">
<title>Blog</title>
<path d="M12.308 2.461h-9.846c-0.667 0-1.244 0.244-1.731 0.731s-0.731 1.064-0.731 1.73v7.385c0 0.667 0.244 1.244 0.731 1.731s1.064 0.731 1.731 0.731h9.846c0.667 0 1.244-0.244 1.731-0.731s0.731-1.064 0.731-1.731v-7.385c0-0.667-0.244-1.244-0.731-1.731s-1.064-0.731-1.731-0.731z"></path>
<path d="M12.308 17.231h-9.846c-0.667 0-1.244 0.244-1.731 0.731s-0.731 1.064-0.731 1.731v7.385c0 0.667 0.244 1.244 0.731 1.731s1.064 0.731 1.731 0.731h9.846c0.667 0 1.244-0.244 1.731-0.731s0.731-1.064 0.731-1.731v-7.385c0-0.667-0.244-1.244-0.731-1.731s-1.064-0.731-1.731-0.731z"></path>
<path d="M31.269 3.192c-0.487-0.488-1.064-0.731-1.731-0.731h-9.846c-0.667 0-1.244 0.244-1.731 0.731s-0.731 1.064-0.731 1.731v7.385c0 0.667 0.244 1.244 0.731 1.731s1.064 0.731 1.731 0.731h9.846c0.667 0 1.244-0.244 1.731-0.731s0.731-1.064 0.731-1.731v-7.385c0-0.667-0.244-1.243-0.731-1.73z"></path>
<path d="M29.538 17.231h-9.846c-0.667 0-1.244 0.244-1.731 0.731s-0.731 1.064-0.731 1.731v7.385c0 0.667 0.244 1.244 0.731 1.731s1.064 0.731 1.731 0.731h9.846c0.667 0 1.244-0.244 1.731-0.731s0.731-1.064 0.731-1.731v-7.385c0-0.667-0.243-1.244-0.731-1.731s-1.064-0.731-1.731-0.731z"></path>
</symbol>
<symbol id="icon-envelope" viewBox="0 0 32 32">
<title>Contact</title>
<path d="M3.071 11.179c0.405 0.286 1.625 1.134 3.661 2.545s3.595 2.497 4.679 3.259c0.119 0.084 0.372 0.265 0.759 0.545s0.708 0.506 0.964 0.679c0.256 0.172 0.565 0.366 0.929 0.58s0.705 0.375 1.027 0.482c0.322 0.107 0.619 0.161 0.893 0.161h0.036c0.274 0 0.571-0.053 0.893-0.161s0.664-0.268 1.027-0.482c0.363-0.214 0.672-0.408 0.928-0.58s0.577-0.399 0.964-0.679c0.387-0.28 0.64-0.461 0.759-0.545 1.095-0.762 3.881-2.696 8.357-5.804 0.869-0.607 1.595-1.339 2.178-2.196s0.875-1.756 0.875-2.696c0-0.786-0.283-1.458-0.848-2.018s-1.235-0.839-2.009-0.839h-26.286c-0.917 0-1.622 0.309-2.116 0.928s-0.741 1.393-0.741 2.321c0 0.75 0.328 1.563 0.982 2.438s1.351 1.563 2.089 2.063z"></path>
<path d="M30.214 13.089c-3.904 2.643-6.869 4.696-8.893 6.161-0.679 0.5-1.229 0.89-1.652 1.17s-0.985 0.565-1.687 0.857c-0.702 0.292-1.357 0.438-1.964 0.438h-0.036c-0.607 0-1.262-0.146-1.964-0.438s-1.265-0.577-1.687-0.857c-0.422-0.28-0.973-0.67-1.652-1.17-1.607-1.178-4.566-3.232-8.875-6.161-0.679-0.452-1.28-0.97-1.804-1.553v14.178c0 0.786 0.28 1.459 0.839 2.018s1.232 0.84 2.018 0.84h26.286c0.786 0 1.458-0.28 2.018-0.84s0.839-1.232 0.839-2.018v-14.178c-0.512 0.571-1.107 1.089-1.786 1.553z"></path>
</symbol>
<symbol id="icon-facebook-logo" viewBox="0 0 32 32">
<title>Facebook</title>
<path d="M18.466 10.485v-2.757c0-0.414 0.019-0.735 0.058-0.961s0.126-0.45 0.262-0.67c0.136-0.22 0.356-0.372 0.66-0.456s0.709-0.126 1.214-0.126h2.757v-5.514h-4.408c-2.55 0-4.382 0.605-5.495 1.815s-1.67 2.993-1.67 5.35v3.32h-3.301v5.515h3.301v16h6.622v-16h4.407l0.583-5.515h-4.99z"></path>
</symbol>
<symbol id="icon-github-logo" viewBox="0 0 32 32">
<title>Github</title>
<path d="M29.854 8.36c-1.431-2.451-3.371-4.392-5.823-5.823s-5.128-2.146-8.031-2.146c-2.903 0-5.58 0.715-8.031 2.146s-4.392 3.371-5.823 5.823c-1.431 2.451-2.146 5.128-2.146 8.031 0 3.486 1.017 6.621 3.052 9.406s4.663 4.712 7.885 5.781c0.375 0.070 0.653 0.021 0.833-0.146s0.271-0.375 0.271-0.625c0-0.042-0.004-0.416-0.011-1.125s-0.011-1.326-0.011-1.854l-0.479 0.083c-0.306 0.056-0.691 0.080-1.156 0.073s-0.948-0.055-1.448-0.146c-0.5-0.090-0.965-0.298-1.396-0.625s-0.736-0.754-0.916-1.281l-0.208-0.479c-0.139-0.319-0.357-0.674-0.656-1.062s-0.601-0.653-0.906-0.792l-0.146-0.104c-0.097-0.069-0.187-0.153-0.271-0.25s-0.146-0.194-0.187-0.292c-0.042-0.097-0.007-0.177 0.104-0.24s0.312-0.093 0.604-0.093l0.417 0.062c0.278 0.056 0.621 0.222 1.031 0.5s0.746 0.639 1.010 1.083c0.32 0.57 0.705 1.004 1.156 1.302s0.906 0.448 1.364 0.448 0.854-0.035 1.187-0.104c0.333-0.069 0.646-0.174 0.937-0.313 0.125-0.931 0.465-1.646 1.021-2.146-0.792-0.083-1.503-0.208-2.135-0.375s-1.285-0.438-1.958-0.813c-0.674-0.375-1.233-0.84-1.677-1.396s-0.809-1.285-1.094-2.188c-0.285-0.903-0.427-1.944-0.427-3.125 0-1.681 0.549-3.111 1.646-4.292-0.514-1.264-0.465-2.68 0.146-4.25 0.403-0.125 1-0.031 1.792 0.281s1.371 0.58 1.74 0.802c0.368 0.222 0.663 0.41 0.885 0.562 1.292-0.361 2.625-0.541 4-0.541s2.708 0.181 4 0.541l0.792-0.5c0.541-0.333 1.181-0.639 1.916-0.917s1.299-0.354 1.688-0.229c0.625 1.569 0.68 2.986 0.166 4.25 1.097 1.181 1.646 2.611 1.646 4.292 0 1.18-0.143 2.225-0.427 3.135s-0.652 1.639-1.104 2.188c-0.452 0.549-1.014 1.011-1.688 1.385s-1.327 0.646-1.958 0.813c-0.632 0.167-1.344 0.292-2.135 0.375 0.722 0.625 1.083 1.611 1.083 2.958v4.395c0 0.25 0.087 0.458 0.261 0.625s0.448 0.215 0.823 0.146c3.222-1.069 5.851-2.996 7.886-5.781s3.052-5.92 3.052-9.406c-0.001-2.902-0.716-5.579-2.146-8.030z"></path>
</symbol>
<symbol id="icon-google-plus" viewBox="0 0 32 32">
<title>Google+</title>
<path d="M24.558 14.636h-11.46v3.82h6.992c-1.043 3.321-4.145 5.73-7.811 5.73-4.521 0-8.186-3.665-8.186-8.186s3.665-8.186 8.186-8.186c2.277 0 4.336 0.93 5.82 2.43l2.773-3.014c-2.215-2.17-5.247-3.509-8.593-3.509-6.781-0-12.279 5.497-12.279 12.279s5.498 12.279 12.279 12.279c5.94 0 11.141-4.219 12.279-9.823v-3.82l-0-0z"></path>
<path d="M32 14.629h-2.344v-2.344h-2.009v2.344h-2.344v2.009h2.344v2.344h2.009v-2.344h2.344z"></path>
</symbol>
<symbol id="icon-home" viewBox="0 0 32 32">
<title>Home</title>
<path d="M16 8.408l-11.413 9.409c0 0.013-0.003 0.033-0.010 0.059s-0.010 0.046-0.010 0.059v9.527c0 0.344 0.126 0.642 0.377 0.893s0.549 0.378 0.893 0.378h7.622v-7.622h5.082v7.622h7.621c0.344 0 0.642-0.126 0.893-0.378s0.378-0.549 0.378-0.893v-9.527c0-0.053-0.007-0.093-0.020-0.119l-11.413-9.409z"></path>
<path d="M31.779 15.673l-4.347-3.612v-8.098c0-0.185-0.059-0.337-0.179-0.457s-0.271-0.179-0.456-0.179h-3.811c-0.185 0-0.338 0.059-0.457 0.179s-0.178 0.271-0.178 0.457v3.87l-4.843-4.049c-0.423-0.344-0.926-0.516-1.508-0.516s-1.085 0.172-1.508 0.516l-14.271 11.889c-0.132 0.106-0.205 0.248-0.218 0.427s0.033 0.334 0.139 0.467l1.231 1.469c0.106 0.119 0.245 0.192 0.417 0.218 0.159 0.013 0.318-0.033 0.477-0.139l13.735-11.453 13.735 11.453c0.106 0.092 0.245 0.138 0.417 0.138h0.060c0.172-0.026 0.31-0.099 0.417-0.218l1.231-1.469c0.106-0.133 0.152-0.288 0.138-0.467s-0.086-0.32-0.218-0.426z"></path>
</symbol>
<symbol id="icon-linkedin-letters" viewBox="0 0 32 32">
<title>LinkedIn</title>
<path d="M0.396 10.646h6.875v20.646h-6.875v-20.646z"></path>
<path d="M29.833 12.532c-1.444-1.576-3.354-2.365-5.729-2.365-0.875 0-1.67 0.108-2.386 0.323s-1.319 0.517-1.812 0.906c-0.493 0.389-0.886 0.75-1.177 1.083-0.277 0.316-0.548 0.685-0.813 1.102v-2.936h-6.854l0.021 1c0.014 0.667 0.021 2.722 0.021 6.167s-0.014 7.937-0.042 13.479h6.854v-11.521c0-0.708 0.076-1.271 0.229-1.688 0.292-0.709 0.732-1.302 1.323-1.781s1.323-0.719 2.198-0.719c1.194 0 2.073 0.413 2.635 1.24s0.844 1.969 0.844 3.427v11.041h6.854v-11.833c-0-3.042-0.722-5.351-2.167-6.927z"></path>
<path d="M3.875 0.708c-1.153 0-2.087 0.337-2.802 1.010s-1.073 1.524-1.073 2.552c0 1.014 0.347 1.861 1.042 2.541s1.611 1.021 2.75 1.021h0.042c1.167 0 2.108-0.34 2.823-1.021s1.066-1.528 1.052-2.541c-0.014-1.028-0.368-1.878-1.063-2.552s-1.618-1.010-2.771-1.010z"></path>
</symbol>
<symbol id="icon-portfolio" viewBox="0 0 32 32">
<title>Portfolio</title>
<path d="M8.803 10.696h16.476v-1.030c0-0.85-0.696-1.545-1.545-1.545h-6.8v-0.899c0-1.28-1.041-2.317-2.317-2.317h-3.955c-0.618 0-1.199 0.242-1.638 0.681s-0.68 1.016-0.68 1.635v0.901h-6.8c-0.85-0.001-1.545 0.693-1.545 1.543v13.796l5.193-10.521c0.63-1.281 2.185-2.245 3.61-2.245zM9.89 7.222c0-0.205 0.084-0.398 0.228-0.544 0.144-0.148 0.339-0.229 0.544-0.229h3.955c0.427 0 0.772 0.346 0.772 0.773v0.901h-5.498v-0.901z"></path>
<path d="M30.994 12.238h-22.191c-0.849 0-1.852 0.623-2.225 1.384l-5.968 12.090c-0.376 0.759 0.012 1.383 0.861 1.383h22.191c0.849 0 1.854-0.622 2.227-1.383l5.966-12.090c0.375-0.761-0.011-1.384-0.862-1.384z"></path>
</symbol>
<symbol id="icon-stack" viewBox="0 0 32 32">
<title>Stack Overflow</title>
<path d="M20.322 21.572l-12.571-1.161-0.25 2.679 12.589 1.161z"></path>
<path d="M20.018 25.018l-12.625 0.018v2.696l12.625-0.017z"></path>
<path d="M22.75 14.964l-10.875-6.429-1.375 2.321 10.875 6.429z"></path>
<path d="M21.161 18.036l-12.197-3.268-0.697 2.607 12.197 3.268z"></path>
<path d="M22.178 29.875h-16.571v-11.035h-2.161v13.143h0.018l0.625 0.018 20.214-0.018 0.018-0.625v-12.518h-2.143z"></path>
<path d="M26.393 0l-2.661 0.464 2.161 12.446 2.66-0.464z"></path>
<path d="M16.072 4.161l7.125 10.429 2.215-1.518-7.108-10.447z"></path>
</symbol>
<symbol id="icon-twitter-black-shape" viewBox="0 0 32 32">
<title>Twitter</title>
<path d="M32 6.092c-1.259 0.542-2.518 0.88-3.776 1.016 1.421-0.853 2.383-2.058 2.884-3.614-1.3 0.771-2.687 1.299-4.163 1.584-1.3-1.381-2.897-2.071-4.792-2.071-1.814 0-3.36 0.639-4.64 1.919s-1.919 2.826-1.919 4.639c0 0.487 0.054 0.988 0.162 1.503-2.68-0.135-5.195-0.809-7.543-2.020s-4.342-2.826-5.98-4.843c-0.596 1.015-0.894 2.118-0.894 3.31 0 1.124 0.264 2.166 0.792 3.127s1.239 1.739 2.132 2.335c-1.056-0.041-2.044-0.318-2.965-0.833v0.081c0 1.584 0.497 2.974 1.492 4.173s2.251 1.952 3.766 2.264c-0.569 0.149-1.144 0.223-1.726 0.223-0.379 0-0.792-0.034-1.239-0.101 0.42 1.313 1.191 2.392 2.315 3.238s2.396 1.282 3.817 1.31c-2.382 1.868-5.096 2.802-8.142 2.802-0.582 0-1.11-0.027-1.584-0.081 3.046 1.963 6.403 2.944 10.071 2.944 2.328 0 4.514-0.368 6.558-1.106 2.044-0.737 3.79-1.726 5.239-2.965s2.697-2.663 3.746-4.274c1.049-1.611 1.83-3.293 2.345-5.046s0.771-3.509 0.771-5.269c0-0.379-0.007-0.663-0.020-0.853 1.286-0.934 2.383-2.064 3.29-3.39z"></path>
</symbol>
</defs>
</svg>
